M48
; DRILL file {KiCad 9.0.1} date 2025-04-19T16:30:46+0200
; FORMAT={-:-/ absolute / metric / decimal}
; #@! TF.CreationDate,2025-04-19T16:30:46+02:00
; #@! TF.GenerationSoftware,Kicad,Pcbnew,9.0.1
; #@! TF.FileFunction,Plated,1,2,PTH
FMAT,2
METRIC
; #@! TA.AperFunction,Plated,PTH,ViaDrill
T1C0.300
; #@! TA.AperFunction,Plated,PTH,ViaDrill
T2C0.500
; #@! TA.AperFunction,Plated,PTH,ComponentDrill
T3C0.800
; #@! TA.AperFunction,Plated,PTH,ComponentDrill
T4C1.000
%
G90
G05
T1
X196.85Y-149.02
T2
X172.72Y-169.975
X172.72Y-174.42
X178.435Y-160.45
X188.976Y-159.18
X200.119Y-131.715
X200.152Y-126.668
X200.152Y-129.208
X200.152Y-134.288
X200.152Y-136.828
X200.152Y-139.368
T3
X172.72Y-146.48
X172.72Y-149.02
X172.72Y-151.56
X172.72Y-154.1
X172.72Y-156.64
X172.72Y-159.18
X172.72Y-161.72
X172.72Y-164.26
X172.72Y-166.8
X175.26Y-143.94
X175.26Y-146.48
X175.26Y-149.02
X175.26Y-151.56
X175.26Y-154.1
X175.26Y-156.64
X175.26Y-159.18
X175.26Y-161.72
X175.26Y-164.26
X175.26Y-166.8
X175.26Y-169.34
X177.8Y-143.94
X177.8Y-146.48
X177.8Y-166.8
X177.8Y-169.34
X180.34Y-143.94
X180.34Y-146.48
X180.34Y-166.8
X180.34Y-169.34
X182.88Y-143.94
X182.88Y-146.48
X182.88Y-166.8
X182.88Y-169.34
X185.42Y-143.94
X185.42Y-146.48
X185.42Y-166.8
X185.42Y-169.34
X187.96Y-143.94
X187.96Y-146.48
X187.96Y-166.8
X187.96Y-169.34
X190.5Y-143.94
X190.5Y-146.48
X190.5Y-166.8
X190.5Y-169.34
X193.04Y-143.94
X193.04Y-146.48
X193.04Y-166.8
X193.04Y-169.34
X195.58Y-143.94
X195.58Y-146.48
X195.58Y-149.02
X195.58Y-151.56
X195.58Y-154.1
X195.58Y-156.64
X195.58Y-159.18
X195.58Y-161.72
X195.58Y-164.26
X195.58Y-166.8
X195.58Y-169.34
X198.12Y-146.48
X198.12Y-149.02
X198.12Y-151.56
X198.12Y-154.1
X198.12Y-156.64
X198.12Y-159.18
X198.12Y-161.72
X198.12Y-164.26
X198.12Y-166.8
T4
X162.56Y-116.0
X162.56Y-118.54
X162.56Y-121.08
X162.56Y-123.62
X162.56Y-126.16
X162.56Y-128.7
X162.56Y-131.24
X162.56Y-133.78
X162.56Y-136.32
X162.56Y-138.86
X162.56Y-141.4
X162.56Y-143.94
X162.56Y-146.48
X162.56Y-149.02
X162.56Y-151.56
X162.56Y-154.1
X162.56Y-156.64
X162.56Y-159.18
X162.56Y-161.72
X162.56Y-164.26
X162.56Y-166.8
X162.56Y-169.34
X162.56Y-171.88
X162.56Y-174.42
X162.56Y-176.96
X162.56Y-179.5
X162.56Y-182.04
X162.56Y-184.58
X162.56Y-187.12
X162.56Y-189.66
X208.28Y-116.0
X208.28Y-118.54
X208.28Y-121.08
X208.28Y-123.62
X208.28Y-126.16
X208.28Y-128.7
X208.28Y-131.24
X208.28Y-133.78
X208.28Y-136.32
X208.28Y-138.86
X208.28Y-141.4
X208.28Y-143.94
X208.28Y-146.48
X208.28Y-149.02
X208.28Y-151.56
X208.28Y-154.1
X208.28Y-156.64
X208.28Y-159.18
X208.28Y-161.72
X208.28Y-164.26
X208.28Y-166.8
X208.28Y-169.34
X208.28Y-171.88
X208.28Y-174.42
X208.28Y-176.96
X208.28Y-179.5
X208.28Y-182.04
X208.28Y-184.58
X208.28Y-187.12
X208.28Y-189.66
M30
